<?xml version="1.0" standalone="no"?>
<!DOCTYPE svg PUBLIC "-//W3C//DTD SVG 20010904//EN"
 "http://www.w3.org/TR/2001/REC-SVG-20010904/DTD/svg10.dtd">
<svg version="1.0" xmlns="http://www.w3.org/2000/svg"
 width="20.000000pt" height="20.000000pt" viewBox="0 0 20.000000 20.000000"
 preserveAspectRatio="xMidYMid meet">

<g transform="translate(0.000000,20.000000) scale(0.100000,-0.100000)"
fill="#000000" stroke="none">
<path d="M69 163 c-13 -15 -12 -15 9 -2 19 12 25 12 45 0 20 -13 21 -13 8 2
-7 10 -21 17 -31 17 -10 0 -24 -7 -31 -17z"/>
<path d="M25 60 c-4 -6 -3 -16 3 -22 6 -6 12 -6 17 2 4 6 3 16 -3 22 -6 6 -12
6 -17 -2z"/>
<path d="M155 60 c-4 -6 -3 -16 3 -22 6 -6 12 -6 17 2 4 6 3 16 -3 22 -6 6
-12 6 -17 -2z"/>
</g>
</svg>
